<svg width="64" height="64" viewBox="0 0 64 64" fill="none" xmlns="http://www.w3.org/2000/svg">
<mask id="mask0_904_36103" style="mask-type:alpha" maskUnits="userSpaceOnUse" x="0" y="0" width="64" height="64">
<rect width="64" height="64" rx="12" fill="#919EAB"/>
</mask>
<g mask="url(#mask0_904_36103)">
<rect width="64" height="64" fill="#D6E4FF"/>
</g>
<path fill-rule="evenodd" clip-rule="evenodd" d="M36.8464 19C36.8464 19 34.6542 19.0101 33.0772 21.0884C31.6747 22.9368 32.0316 24.5177 32.0316 24.5177C32.0316 24.5177 33.9331 24.8463 35.6057 22.8365C37.1723 20.9541 36.8464 19 36.8464 19ZM33.4903 25.5075C32.9742 25.7155 32.5502 25.8865 32.2325 25.8865C31.8365 25.8865 31.3588 25.7024 30.8037 25.4886C30.0339 25.1922 29.1154 24.8384 28.0596 24.8386C25.2633 24.8386 22.2822 27.3423 22.2822 32.1148C22.2822 36.9655 25.804 43.0004 28.5919 43.0004C29.0256 43.0004 29.5628 42.8057 30.1584 42.5899C30.8992 42.3214 31.7302 42.0203 32.5647 42.0203C33.3129 42.0203 33.9619 42.2627 34.6024 42.502C35.2265 42.7351 35.8425 42.9652 36.5344 42.9652C39.5874 42.9652 41.8476 36.6032 41.8476 36.6032C41.8476 36.6032 38.6142 35.3514 38.6142 31.7188C38.6142 28.4986 41.2097 27.1716 41.2097 27.1716C41.2097 27.1716 39.8827 24.7712 36.5092 24.7712C35.3166 24.7712 34.2923 25.1841 33.4903 25.5075Z" fill="#212B36"/>
</svg>
