<svg width="317" height="238" viewBox="0 0 317 238" fill="none" xmlns="http://www.w3.org/2000/svg">
<g opacity="0.2">
<path fill-rule="evenodd" clip-rule="evenodd" d="M0 131.416C0 158.824 9.87018 183.799 26.1122 202.674C44.7455 224.336 71.7656 237.954 101.884 238C115.047 238.019 127.633 235.43 139.194 230.704C145.172 228.259 151.863 228.539 157.652 231.436C164.443 234.829 172.048 236.732 180.078 236.732C183.395 236.732 186.644 236.405 189.786 235.784C198.755 234.019 206.917 229.841 213.62 223.924C217.832 220.203 223.228 218.334 228.742 218.34H228.835C247.056 218.34 263.98 212.567 278.032 202.674C290.593 193.842 300.852 181.72 307.686 167.487C313.645 155.084 317 141.073 317 126.244C317 75.3847 277.524 34.1486 228.835 34.1486C223.872 34.1486 219.009 34.5866 214.265 35.4037C201.703 14.161 179.208 0 153.546 0C142.712 0 132.44 2.52392 123.246 7.04826C114.502 11.337 106.728 17.431 100.369 24.8578C78.7754 25.2174 58.8088 32.5861 42.4668 44.8838C16.7425 64.2304 0 95.7833 0 131.416Z" fill="url(#paint0_linear_111_230666)"/>
</g>
<path opacity="0.05" d="M193.506 136.315C192.021 138.082 190.418 138.053 189.462 137.804L189.498 136.889C189.498 136.889 193.447 135.082 193.346 135.462C193.309 135.604 193.384 135.946 193.506 136.315Z" fill="#FF4842"/>
<path opacity="0.05" d="M204.328 138.316C201.807 139.774 200.328 138.065 199.984 137.581C200.195 137.025 200.513 136.124 200.448 135.867C200.353 135.485 204.296 137.292 204.296 137.292L204.328 138.316Z" fill="#FF4842"/>
<path opacity="0.05" d="M201.627 123.762C201.627 123.762 204.026 122.379 204.549 123.001C205.073 123.624 201.627 123.762 201.627 123.762Z" fill="#FF4842"/>
<path opacity="0.05" d="M203.076 124.523C203.076 124.523 202.681 124.721 203.552 124.974C204.423 125.227 203.076 124.523 203.076 124.523Z" fill="#FF4842"/>
<path opacity="0.05" d="M188.57 120.718C188.489 120.742 190.566 122.122 192.442 120.979C192.434 120.979 189.038 120.576 188.57 120.718Z" fill="#FF4842"/>
<path opacity="0.05" d="M192.339 123.357C192.339 123.357 191.771 124.476 190.606 124.642C189.441 124.808 192.339 123.357 192.339 123.357Z" fill="#FF4842"/>
<path opacity="0.05" d="M199.964 125.785C199.964 125.785 202.697 130.133 202.174 131.159C201.651 132.185 199.964 125.785 199.964 125.785Z" fill="#FF4842"/>
<path opacity="0.05" d="M194.572 143.075C194.572 143.318 194.572 143.546 194.549 143.733C194.477 144.613 192.315 144.281 192.315 144.281C190.341 144.556 189.63 143.607 189.395 142.7C189.321 142.405 189.285 142.102 189.287 141.798C189.285 141.617 189.297 141.436 189.322 141.257V141.077C189.748 140.948 190.209 141.043 190.55 141.328C191.429 142.041 192.594 141.494 192.594 141.494C192.594 141.494 193.449 141.565 193.778 141.85C193.964 142.01 194.27 141.624 194.503 141.257C194.517 141.494 194.539 141.923 194.552 142.381C194.568 142.617 194.572 142.854 194.572 143.075Z" fill="#FF4842"/>
<path opacity="0.05" d="M191.105 143.024C191.105 143.024 190.513 143.605 189.395 142.707C189.321 142.413 189.285 142.11 189.287 141.806C189.857 142.241 190.915 143.024 191.105 143.024Z" fill="#FF4842"/>
<path opacity="0.05" d="M194.572 143.075C194.475 143.15 194.351 143.182 194.229 143.162C194.108 143.143 194 143.074 193.93 142.972C194.161 142.797 194.373 142.598 194.562 142.379C194.568 142.617 194.572 142.854 194.572 143.075Z" fill="#FF4842"/>
<path opacity="0.05" d="M199.206 143.483C199.206 143.728 199.206 143.955 199.228 144.141C199.299 145.022 201.461 144.688 201.461 144.688C203.436 144.965 204.146 144.016 204.381 143.107C204.498 142.635 204.523 142.145 204.454 141.664V141.484C204.028 141.358 203.567 141.452 203.224 141.735C202.346 142.449 201.183 141.901 201.183 141.901C201.183 141.901 200.328 141.974 199.998 142.259C199.813 142.419 199.506 142.034 199.275 141.666C199.262 141.903 199.238 142.332 199.224 142.791C199.208 143.022 199.204 143.259 199.206 143.483Z" fill="#FF4842"/>
<path opacity="0.05" d="M202.674 143.427C202.674 143.427 203.266 144.008 204.381 143.111C204.456 142.817 204.493 142.515 204.492 142.211C203.919 142.644 202.861 143.427 202.674 143.427Z" fill="#FF4842"/>
<path opacity="0.05" d="M199.206 143.482C199.303 143.557 199.427 143.589 199.548 143.57C199.67 143.55 199.777 143.481 199.846 143.38C199.616 143.204 199.404 143.006 199.214 142.787C199.208 143.022 199.204 143.259 199.206 143.482Z" fill="#FF4842"/>
<g opacity="0.05">
<path d="M211.079 70.2557C211.12 70.1648 211.16 70.0738 211.197 69.9849C211.235 69.896 211.249 69.8465 211.27 69.7754C211.198 69.9318 211.134 70.0922 211.079 70.2557Z" fill="#FF4842"/>
</g>
<path fill-rule="evenodd" clip-rule="evenodd" d="M104.077 184.754C103.598 184.178 103.379 183.429 103.471 182.685L112.186 111.298L112.908 105.369C113.076 104.004 114.228 102.976 115.602 102.965L141.129 102.795C141.864 102.791 142.565 102.49 143.076 101.962C143.586 101.433 143.863 100.721 143.842 99.9864L143.832 99.7156C143.807 98.9745 144.084 98.2549 144.599 97.7217C145.113 97.1885 145.822 96.8873 146.563 96.8872H173.388C174.894 96.8872 176.116 98.1074 176.119 99.6148C176.119 99.7378 176.111 99.8605 176.095 99.9825C175.992 100.752 176.221 101.529 176.724 102.119C177.228 102.71 177.958 103.058 178.733 103.078L204.496 103.736C205.289 103.755 206.034 104.119 206.537 104.732C207.04 105.346 207.252 106.148 207.118 106.93L194.239 182.236L193.996 183.659C193.936 184.023 193.801 184.37 193.601 184.679L104.077 184.754Z" fill="#005249"/>
<rect width="15.09" height="51.2362" transform="matrix(0.82246 0.568823 -0.568014 0.823019 181.822 81.7637)" fill="white"/>
<rect width="10.6533" height="10.6572" transform="matrix(0.820828 0.571175 -0.570367 0.82139 182.717 83.7617)" fill="#FFC107"/>
<rect opacity="0.5" width="10.6677" height="10.6717" transform="matrix(0.82246 0.568823 -0.568014 0.823019 175.866 94.3105)" fill="#FFC107"/>
<rect opacity="0.3" width="10.6677" height="10.6717" transform="matrix(0.82246 0.568823 -0.568014 0.823019 168.546 104.915)" fill="#FFC107"/>
<rect width="15.0862" height="51.0557" transform="matrix(0.959775 0.280771 -0.280228 0.959933 164.287 79.1226)" fill="white"/>
<rect width="10.665" height="10.6744" transform="matrix(0.959775 0.280771 -0.280228 0.959933 166.189 80.5371)" fill="#FF4842"/>
<rect opacity="0.5" width="10.665" height="10.6744" transform="matrix(0.959775 0.28077 -0.280228 0.959933 162.577 92.9077)" fill="#FF4842"/>
<rect opacity="0.3" width="10.6649" height="10.6744" transform="matrix(0.959775 0.280771 -0.280227 0.959934 158.965 105.276)" fill="#FF4842"/>
<rect width="15.085" height="51.0596" transform="matrix(0.996772 0.0802827 -0.0801153 0.996786 154.031 79.8955)" fill="white"/>
<rect width="10.6641" height="10.6752" transform="matrix(0.996772 0.0802827 -0.0801152 0.996786 156.171 80.8965)" fill="#1890FF"/>
<rect opacity="0.5" width="10.6641" height="10.6752" transform="matrix(0.996772 0.0802828 -0.0801152 0.996786 155.137 93.7402)" fill="#1890FF"/>
<rect opacity="0.3" width="10.6641" height="10.6752" transform="matrix(0.996772 0.0802827 -0.0801152 0.996786 154.106 106.588)" fill="#1890FF"/>
<rect width="15.0849" height="51.0598" transform="matrix(0.99896 -0.0455851 0.0454896 0.998965 147.266 81.9414)" fill="white"/>
<rect width="10.6641" height="10.6753" transform="matrix(0.99896 -0.045585 0.0454897 0.998965 149.513 82.6626)" fill="#00AB55"/>
<rect opacity="0.5" width="10.6774" height="10.6886" transform="matrix(0.99875 -0.0499901 0.0498852 0.998755 150.517 95.1289)" fill="#00AB55"/>
<rect opacity="0.3" width="10.6641" height="10.6753" transform="matrix(0.99896 -0.0455852 0.0454896 0.998965 150.685 108.412)" fill="#00AB55"/>
<path d="M153.665 149.23L140.263 154.42L120.674 162C119.934 160.617 118.844 158.747 117.495 156.516C112.855 148.819 105.178 136.847 98.3428 126.326C90.6424 114.467 84.0142 104.459 84.0142 104.459L88.8121 103.076L128.005 91.6851L153.665 149.23Z" fill="#F4F6F8"/>
<path opacity="0.1" d="M153.665 149.23L140.262 154.42C132.775 155.982 125.135 156.685 117.489 156.516C112.849 148.819 105.172 136.847 98.3367 126.326L88.8139 103.068L128.005 91.6851L153.665 149.23Z" fill="black"/>
<path d="M163.636 146C163.636 146 142.816 158.33 111.73 155.541L86.9481 95.059L98.8245 93.0153L139.881 85.957L163.18 144.824L163.636 146Z" fill="#00AB55"/>
<path opacity="0.1" d="M163.172 144.832C158.27 145.073 152.597 145.05 146.891 144.368C140.715 143.64 134.503 142.142 129.178 139.395C124.726 137.1 120.919 134.604 117.6 131.609C108.965 123.835 103.623 112.715 98.8246 93.0231L139.882 85.9648L163.172 144.832Z" fill="#FF4842"/>
<path d="M178.447 141.45C178.447 141.45 163.099 144.459 147.477 142.607C141.301 141.879 135.09 140.381 129.764 137.634C125.312 135.339 121.507 132.843 118.186 129.848C107.5 120.224 101.857 105.475 96.0386 75.6909C96.0386 75.6909 121.553 81.8558 146.782 68.3521C146.774 68.3619 155.278 121.487 178.447 141.45Z" fill="white"/>
<path opacity="0.3" d="M109.236 86.625C109.236 86.625 129.984 85.451 135.777 80.9741L136.655 83.8006C136.655 83.8006 122.947 89.8547 109.236 89.9278V86.625Z" fill="#00AB55"/>
<path opacity="0.3" d="M109.236 100.579C109.236 100.579 129.324 99.4785 144.502 92.1396L145.015 93.3137C145.015 93.3137 132.971 100.352 109.236 102.194L109.236 100.579Z" fill="#00AB55"/>
<path opacity="0.3" d="M110.853 106.017C110.853 106.017 130.941 104.916 146.117 97.5771L146.63 98.7512C146.63 98.7512 134.586 105.788 110.853 107.632L110.853 106.017Z" fill="#00AB55"/>
<path opacity="0.3" d="M112.468 111.462C112.468 111.462 132.556 110.361 147.734 103.022L148.245 104.197C148.245 104.197 136.201 111.235 112.468 113.077L112.468 111.462Z" fill="#00AB55"/>
<path opacity="0.3" d="M114.085 116.908C114.085 116.908 134.174 115.807 149.349 108.468L149.863 109.642C149.863 109.642 137.818 116.68 114.085 118.522L114.085 116.908Z" fill="#00AB55"/>
<path opacity="0.3" d="M115.7 122.355C115.7 122.355 135.788 121.254 150.966 113.916L151.478 115.09C151.478 115.09 139.433 122.126 115.7 123.97V122.355Z" fill="#00AB55"/>
<path d="M256.948 189.966C256.948 189.966 248.599 189.462 249.583 195.319C249.583 195.319 249.385 196.353 250.325 196.823C250.325 196.823 250.339 196.388 251.18 196.536C251.48 196.587 251.785 196.602 252.088 196.58C252.498 196.552 252.887 196.391 253.196 196.121C253.196 196.121 255.544 195.151 256.456 191.312C256.456 191.312 257.131 190.474 257.103 190.259L255.696 190.852C255.696 190.852 256.177 191.87 255.798 192.714C255.798 192.714 255.753 190.889 255.482 190.935C255.427 190.935 254.75 191.287 254.75 191.287C254.75 191.287 255.577 193.066 254.947 194.346C254.947 194.346 255.184 192.162 254.485 191.415L253.498 191.994C253.498 191.994 254.466 193.825 253.81 195.319C253.81 195.319 253.978 193.028 253.289 192.135L252.39 192.836C252.39 192.836 253.301 194.641 252.746 195.88C252.746 195.88 252.673 193.212 252.195 193.01C252.195 193.01 251.405 193.704 251.291 193.999C251.291 193.999 251.913 195.307 251.526 195.999C251.526 195.999 251.289 194.22 251.095 194.22C251.095 194.22 250.305 195.406 250.23 196.196C250.23 196.196 250.264 194.995 250.906 194.099C250.454 194.186 250.036 194.402 249.705 194.722C249.705 194.722 249.828 193.888 251.099 193.817C251.099 193.817 251.747 192.923 251.919 192.868C251.919 192.868 250.655 192.763 249.889 193.103C249.889 193.103 250.564 192.313 252.152 192.674L253.038 191.951C253.038 191.951 251.374 191.722 250.669 191.975C250.669 191.975 251.48 191.279 253.277 191.777L254.242 191.2C254.242 191.2 252.825 190.893 251.98 191.002C251.98 191.002 252.87 190.52 254.527 191.042L255.216 190.731C255.216 190.731 254.177 190.534 253.873 190.494C253.569 190.455 253.551 190.38 253.551 190.38C254.21 190.268 254.886 190.344 255.504 190.597C255.504 190.597 256.971 190.059 256.948 189.966Z" fill="#00AB55"/>
<ellipse opacity="0.1" cx="251.198" cy="197.333" rx="5.90759" ry="1.00014" fill="#00AB55"/>
<path d="M260.835 170.634C260.835 170.634 256.13 170.349 256.689 173.652C256.63 173.995 256.798 174.338 257.106 174.5C257.106 174.5 257.115 174.255 257.589 174.338C257.758 174.366 257.93 174.374 258.101 174.362C258.331 174.347 258.55 174.257 258.725 174.105C258.725 174.105 260.047 173.557 260.563 171.393C260.563 171.393 260.944 170.921 260.928 170.8L260.138 171.138C260.138 171.138 260.409 171.713 260.196 172.19C260.196 172.19 260.17 171.16 260.018 171.184C259.986 171.184 259.605 171.381 259.605 171.381C259.605 171.381 260.071 172.369 259.72 173.107C259.72 173.107 259.854 171.875 259.459 171.452L258.9 171.78C258.9 171.78 259.445 172.812 259.076 173.654C259.076 173.654 259.171 172.362 258.782 171.86L258.276 172.255C258.276 172.255 258.788 173.273 258.474 173.97C258.474 173.97 258.432 172.466 258.164 172.354C257.972 172.516 257.8 172.702 257.652 172.905C257.652 172.905 258.004 173.644 257.787 174.034C257.787 174.034 257.652 173.032 257.544 173.028C257.544 173.028 257.102 173.69 257.056 174.144C257.078 173.723 257.209 173.314 257.437 172.959C257.182 173.007 256.946 173.129 256.76 173.31C256.76 173.31 256.829 172.84 257.55 172.8C257.55 172.8 257.915 172.296 258.012 172.265C258.012 172.265 257.299 172.205 256.867 172.397C256.867 172.397 257.248 171.954 258.142 172.156L258.644 171.747C258.644 171.747 257.704 171.618 257.307 171.761C257.307 171.761 257.765 171.365 258.778 171.654L259.323 171.328C258.904 171.236 258.474 171.199 258.045 171.219C258.045 171.219 258.549 170.946 259.481 171.241L259.876 171.067C259.876 171.067 259.283 170.95 259.118 170.933C258.952 170.915 258.936 170.867 258.936 170.867C259.307 170.805 259.689 170.848 260.038 170.99C260.038 170.99 260.851 170.685 260.835 170.634Z" fill="#00AB55"/>
<ellipse opacity="0.1" cx="257.597" cy="174.787" rx="3.33092" ry="0.563316" fill="#00AB55"/>
<path d="M233.059 173.5C233.059 173.5 227.376 173.156 228.047 177.143C227.976 177.557 228.179 177.971 228.551 178.167C228.551 178.167 228.551 177.87 229.143 177.969C229.347 178.004 229.555 178.014 229.761 177.999C230.04 177.98 230.305 177.87 230.515 177.686C230.515 177.686 232.113 177.026 232.735 174.413C232.735 174.413 233.195 173.844 233.175 173.696L232.206 174.107C232.206 174.107 232.533 174.799 232.275 175.374C232.275 175.374 232.243 174.133 232.059 174.16C232.022 174.16 231.562 174.401 231.562 174.401C231.562 174.401 232.125 175.607 231.7 176.485C231.7 176.485 231.862 174.998 231.386 174.488L230.711 174.884C230.711 174.884 231.368 176.131 230.922 177.147C230.922 177.147 231.037 175.587 230.569 174.973L229.957 175.451C229.957 175.451 230.577 176.678 230.198 177.522C230.198 177.522 230.15 175.706 229.824 175.57C229.824 175.57 229.289 176.042 229.208 176.236C229.208 176.236 229.631 177.127 229.368 177.597C229.368 177.597 229.206 176.388 229.074 176.382C229.074 176.382 228.543 177.184 228.482 177.732C228.508 177.224 228.667 176.732 228.942 176.305C228.634 176.364 228.351 176.511 228.126 176.73C228.126 176.73 228.209 176.163 229.074 176.113C229.074 176.113 229.514 175.504 229.633 175.469C229.633 175.469 228.772 175.396 228.251 175.627C228.251 175.627 228.709 175.093 229.789 175.336L230.393 174.842C230.393 174.842 229.262 174.688 228.78 174.858C228.78 174.858 229.333 174.386 230.557 174.732L231.214 174.336C231.214 174.336 230.249 174.129 229.672 174.204C229.672 174.204 230.28 173.876 231.406 174.231L231.876 174.02C231.876 174.02 231.169 173.882 230.962 173.86C230.754 173.838 230.744 173.781 230.744 173.781C231.192 173.705 231.653 173.755 232.073 173.927C232.073 173.927 233.076 173.561 233.059 173.5Z" fill="#00AB55"/>
<ellipse opacity="0.1" cx="229.145" cy="178.514" rx="4.02199" ry="0.679932" fill="#00AB55"/>
<rect width="33.7302" height="60.3101" rx="4.73723" transform="matrix(0.308889 -0.951098 0.950907 0.309477 183.683 82.6479)" fill="white"/>
<g opacity="0.2">
<ellipse cx="200.511" cy="68.4294" rx="6.19191" ry="6.19843" fill="#00AB55"/>
</g>
<g opacity="0.2">
<rect width="1.69768" height="26.9798" transform="matrix(0.30889 -0.951098 0.950907 0.309477 215.326 67.314)" fill="#00AB55"/>
</g>
<g opacity="0.2">
<rect width="1.69768" height="13.7436" transform="matrix(0.308889 -0.951098 0.950907 0.309477 213.989 71.4302)" fill="#00AB55"/>
</g>
<g opacity="0.2">
<rect width="1.69767" height="22.2287" transform="matrix(0.308889 -0.951098 0.950907 0.309477 212.649 75.5498)" fill="#00AB55"/>
</g>
<g opacity="0.2">
<rect width="1.69767" height="26.9798" transform="matrix(0.308889 -0.951098 0.950907 0.309477 211.313 79.6675)" fill="#00AB55"/>
</g>
<g opacity="0.5">
<rect width="3.2827" height="7.46617" transform="matrix(0.308888 -0.951098 0.950907 0.309478 227.448 93.1597)" fill="#00AB55"/>
</g>
<rect width="33.2439" height="51.7296" rx="4" transform="matrix(0.540356 -0.841437 0.84092 0.54116 178.422 141.228)" fill="white"/>
<rect width="9.40548" height="2.21206" transform="matrix(0.535867 -0.844303 0.843791 0.536671 184.867 139.276)" fill="#DFE3E8"/>
<rect width="20.6565" height="2.02839" transform="matrix(0.535867 -0.844302 0.843792 0.536671 190.833 140.885)" fill="#DFE3E8"/>
<rect width="20.6565" height="2.02839" transform="matrix(0.535867 -0.844303 0.843792 0.536671 194.49 143.208)" fill="#DFE3E8"/>
<rect width="20.6565" height="2.02839" transform="matrix(0.535867 -0.844302 0.843792 0.53667 198.145 145.536)" fill="#DFE3E8"/>
<rect width="20.6275" height="2.02556" transform="matrix(0.540355 -0.841437 0.84092 0.54116 201.927 148.907)" fill="#DFE3E8"/>
<rect width="20.6565" height="2.02839" transform="matrix(0.535868 -0.844302 0.843792 0.53667 205.456 150.185)" fill="#F4F6F8"/>
<rect width="20.6565" height="2.02839" transform="matrix(0.535868 -0.844302 0.843792 0.53667 209.112 152.508)" fill="#F4F6F8"/>
<rect width="5.34886" height="5.34648" transform="matrix(0.535868 -0.844301 0.843793 0.536669 224.462 142.602)" fill="#DFE3E8"/>
<path d="M177.835 111.569L147.61 111.895C146.478 111.907 145.567 112.828 145.566 113.961V116.461C145.565 117.582 144.672 118.499 143.552 118.526L121.742 119.05C120.791 119.074 119.947 118.444 119.699 117.524L118.674 113.755C118.428 112.846 117.599 112.218 116.658 112.229L87.5248 112.543C86.9207 112.549 86.3496 112.82 85.9621 113.284C85.5746 113.748 85.4097 114.359 85.5109 114.955L97.2313 184.007C97.3993 184.998 98.2549 185.725 99.259 185.729L191.297 186.124C191.913 186.126 192.499 185.852 192.893 185.377C193.287 184.902 193.448 184.276 193.332 183.669L179.882 113.247C179.695 112.266 178.833 111.559 177.835 111.569Z" fill="url(#paint1_linear_111_230666)"/>
<ellipse opacity="0.1" cx="78.9813" cy="171.006" rx="3.2006" ry="0.440781" fill="#00AB55"/>
<ellipse opacity="0.1" cx="66.7218" cy="172.249" rx="3.20061" ry="0.440765" fill="#00AB55"/>
<ellipse opacity="0.1" cx="71.6284" cy="175.793" rx="2.27458" ry="0.312286" fill="#00AB55"/>
<ellipse opacity="0.1" cx="58.905" cy="175.48" rx="2.27458" ry="0.312286" fill="#00AB55"/>
<path d="M66.6527 172.152C66.6527 172.152 71.1406 157.423 65.9498 151.523C62.066 147.109 57.657 147.637 55.6826 148.183C54.6493 148.459 53.789 149.175 53.329 150.141C52.6379 151.632 52.7623 154.051 57.6353 156.875C65.7918 161.603 66.2992 168.088 66.2992 168.088L66.6527 172.152Z" fill="#00AB55"/>
<path d="M56.3876 150.272C56.3876 150.272 69.6165 154.423 66.6548 172.152" stroke="#005249" stroke-width="0.5" stroke-linecap="round"/>
<path d="M64.1155 151.756C64.1155 151.756 62.2931 152.986 62.8735 154.834" stroke="#005249" stroke-width="0.5" stroke-linecap="round"/>
<path d="M57.7145 152.851C57.7145 152.851 58.8281 151.716 60.1845 152.343" stroke="#005249" stroke-width="0.5" stroke-linecap="round"/>
<path d="M62.9445 158.555C62.9445 158.555 64.9012 157.567 65.4067 158.806" stroke="#005249" stroke-width="0.5" stroke-linecap="round"/>
<path d="M67.7841 160.625C67.7841 160.625 66.3151 160.508 66.2894 161.218" stroke="#005249" stroke-width="0.5" stroke-linecap="round"/>
<path d="M66.8345 172.269C66.8345 172.269 61.5765 161.564 60.1332 161.793C59.448 161.906 59.1321 162.584 58.988 163.26C58.8108 164.137 58.9108 165.047 59.2743 165.865C60.0206 167.584 62.0247 170.836 66.8345 172.269Z" fill="#00AB55"/>
<path d="M60.1724 163.829C60.1724 163.829 65.6891 171.838 66.7553 172.189" stroke="#005249" stroke-width="0.5" stroke-linecap="round"/>
<path d="M59.6649 165.08H60.9523" stroke="#005249" stroke-width="0.5" stroke-linecap="round"/>
<path d="M61.2072 168.009L63.2271 168.096" stroke="#005249" stroke-width="0.5" stroke-linecap="round"/>
<path d="M62.4372 165.665L62.2181 166.719" stroke="#005249" stroke-width="0.5" stroke-linecap="round"/>
<path d="M64.5836 168.869L64.5441 169.826" stroke="#005249" stroke-width="0.5" stroke-linecap="round"/>
<path d="M66.6784 172.269C66.6784 172.269 71.9344 161.564 73.3778 161.793C74.0649 161.906 74.3808 162.584 74.5229 163.26C74.7002 164.137 74.6001 165.047 74.2366 165.865C73.4903 167.584 71.4842 170.836 66.6784 172.269Z" fill="#00AB55"/>
<path d="M73.3401 163.829C73.3401 163.829 67.8116 171.838 66.7553 172.189" stroke="#005249" stroke-width="0.5" stroke-linecap="round"/>
<path d="M73.8477 165.08H72.5604" stroke="#005249" stroke-width="0.5" stroke-linecap="round"/>
<path d="M72.3055 168.009L70.2856 168.096" stroke="#005249" stroke-width="0.5" stroke-linecap="round"/>
<path d="M71.0755 165.665L71.2947 166.719" stroke="#005249" stroke-width="0.5" stroke-linecap="round"/>
<path d="M68.9291 168.869L68.9686 169.826" stroke="#005249" stroke-width="0.5" stroke-linecap="round"/>
<path d="M57.651 174.769C57.508 174.652 57.404 174.494 57.3529 174.317C57.3025 174.133 57.3906 173.939 57.5622 173.856C57.7596 173.783 57.9571 173.915 58.115 174.054C58.273 174.192 58.4527 174.338 58.6501 174.305C58.437 174.111 58.341 173.82 58.3974 173.538C58.4055 173.48 58.4294 173.426 58.4665 173.382C58.5731 173.267 58.7666 173.316 58.895 173.407C59.2898 173.692 59.4142 174.243 59.4162 174.742C59.436 174.559 59.436 174.375 59.4162 174.192C59.4056 174.005 59.4885 173.825 59.6374 173.712C59.7335 173.659 59.8418 173.633 59.9513 173.637C60.1348 173.61 60.3208 173.664 60.4627 173.783C60.601 173.971 60.5928 174.23 60.4429 174.409C60.2917 174.579 60.1127 174.722 59.9138 174.832C59.7628 174.923 59.6339 175.047 59.5367 175.194C59.5247 175.214 59.5154 175.235 59.509 175.257H58.3599C58.1026 175.128 57.8642 174.963 57.651 174.769Z" fill="#00AB55"/>
<path d="M77.682 170.456C77.5386 170.34 77.4345 170.183 77.3838 170.006C77.3332 169.822 77.4203 169.629 77.5912 169.545C77.7886 169.472 77.986 169.604 78.144 169.743C78.302 169.881 78.4797 170.031 78.683 170.002C78.4698 169.809 78.3731 169.519 78.4283 169.237C78.4371 169.179 78.4617 169.125 78.4994 169.081C78.606 168.966 78.7995 169.015 78.9279 169.104C79.3326 169.391 79.4471 169.942 79.4491 170.44C79.4689 170.257 79.4689 170.072 79.4491 169.889C79.4312 169.704 79.505 169.523 79.6466 169.403C79.7431 169.351 79.8513 169.326 79.9605 169.33C80.1436 169.304 80.3292 169.356 80.4719 169.474C80.6107 169.663 80.6017 169.923 80.4502 170.102C80.3 170.273 80.1217 170.416 79.923 170.525C79.7719 170.615 79.643 170.738 79.5459 170.885C79.5343 170.906 79.525 170.928 79.5182 170.95H78.3948C78.1356 170.819 77.8958 170.653 77.682 170.456Z" fill="#00AB55"/>
<path d="M71.0063 174.769C70.8634 174.652 70.7589 174.494 70.7062 174.316C70.6559 174.132 70.7439 173.939 70.9155 173.856C71.113 173.783 71.3104 173.915 71.4684 174.054C71.6263 174.192 71.8021 174.342 72.0074 174.314C71.7945 174.121 71.698 173.83 71.7527 173.548C71.7615 173.49 71.7861 173.436 71.8238 173.391C71.9304 173.277 72.1239 173.326 72.2522 173.417C72.657 173.702 72.7695 174.253 72.7735 174.751C72.7932 174.569 72.7932 174.384 72.7735 174.202C72.758 174.015 72.8356 173.833 72.9808 173.716C73.0768 173.663 73.1853 173.637 73.2948 173.64C73.4782 173.614 73.6641 173.668 73.8061 173.787C73.9446 173.975 73.9356 174.235 73.7844 174.413C73.6339 174.583 73.4556 174.726 73.2572 174.836C73.1062 174.927 72.9774 175.051 72.8801 175.198C72.8682 175.218 72.8589 175.239 72.8525 175.261H71.7073C71.4528 175.129 71.2171 174.964 71.0063 174.769Z" fill="#00AB55"/>
<ellipse opacity="0.1" cx="55.7833" cy="57.5189" rx="4.27076" ry="4.27525" fill="#00AB55"/>
<ellipse opacity="0.1" cx="261.145" cy="91.683" rx="4.27077" ry="4.27525" fill="#00AB55"/>
<ellipse opacity="0.1" cx="184.374" cy="43.9418" rx="4.27077" ry="4.27525" fill="#00AB55"/>
<ellipse opacity="0.1" cx="64.3247" cy="81.1049" rx="7.15743" ry="7.16496" fill="#00AB55"/>
<path fill-rule="evenodd" clip-rule="evenodd" d="M136.065 138.774C130.798 138.774 126.528 143.049 126.528 148.321C126.528 153.594 130.798 157.868 136.065 157.868C141.332 157.868 145.602 153.594 145.602 148.321C145.602 143.049 141.332 138.774 136.065 138.774V138.774Z" fill="#007B55"/>
<path opacity="0.72" fill-rule="evenodd" clip-rule="evenodd" d="M136.065 139.885C140.719 139.885 144.492 143.662 144.492 148.321C144.492 152.98 140.719 156.757 136.065 156.757C131.411 156.757 127.638 152.98 127.638 148.321C127.642 143.663 131.412 139.889 136.065 139.885Z" fill="#00AB55"/>
<path fill-rule="evenodd" clip-rule="evenodd" d="M132.121 149.018L131.66 148.568C131.561 148.477 131.504 148.349 131.504 148.216C131.504 148.082 131.561 147.955 131.66 147.864L135.706 143.907C135.8 143.81 135.93 143.755 136.067 143.755C136.203 143.755 136.334 143.81 136.427 143.907L140.473 147.86C140.571 147.952 140.626 148.079 140.626 148.212C140.626 148.345 140.571 148.472 140.473 148.564L140.012 149.015C139.918 149.11 139.788 149.164 139.652 149.164C139.516 149.164 139.386 149.11 139.291 149.015L136.899 146.551V152.397C136.9 152.527 136.848 152.651 136.755 152.743C136.661 152.835 136.534 152.886 136.402 152.886H135.735C135.459 152.886 135.234 152.667 135.234 152.397V146.558L132.842 149.022C132.747 149.117 132.617 149.17 132.481 149.169C132.345 149.169 132.215 149.114 132.121 149.018Z" fill="#007B55"/>
<defs>
<linearGradient id="paint0_linear_111_230666" x1="217.152" y1="280.332" x2="333.975" y2="17.3116" gradientUnits="userSpaceOnUse">
<stop stop-color="#00AB55"/>
<stop offset="1" stop-color="#00AB55" stop-opacity="0.01"/>
</linearGradient>
<linearGradient id="paint1_linear_111_230666" x1="117.969" y1="90.7302" x2="85.9202" y2="185.265" gradientUnits="userSpaceOnUse">
<stop stop-color="#00AB55"/>
<stop offset="1" stop-color="#007B55"/>
</linearGradient>
</defs>
</svg>
